<svg xmlns="http://www.w3.org/2000/svg" viewBox="0 0 256 257" preserveAspectRatio="xMidYMid">
  <defs>
    <linearGradient id="g" x1="0" x2="1" y1="0" y2="1">
      <stop offset="0" stop-color="#41d1ff" />
      <stop offset="1" stop-color="#bd34fe" />
    </linearGradient>
    <linearGradient id="s" x1="0.5" x2="0.5" y1="0" y2="1">
      <stop offset="0" stop-color="#ffea83" />
      <stop offset="0.083" stop-color="#ffdd35" />
      <stop offset="1" stop-color="#ffa800" />
    </linearGradient>
  </defs>
  <path fill="url(#g)" d="M255.153 37.938L134.897 252.976c-2.483 4.44-8.862 4.466-11.382.048L0.875 37.958c-2.746-4.711 1.371-10.447 6.83-9.42l120.385 22.663a6.537 6.537 0 0 0 2.322-0.002l117.843-22.65c5.438-1.045 9.574 4.658 6.84 9.374z" />
  <path fill="url(#s)" d="M185.432 0.063L96.44 17.501a3.268 3.268 0 0 0-2.634 3.014l-5.474 92.456a3.268 3.268 0 0 0 3.997 3.378l24.777-5.718c2.318-0.535 4.413 1.507 3.936 3.838l-7.361 36.047c-0.495 2.426 1.782 4.5 4.151 3.78l15.304-4.649c2.372-0.72 4.652 1.36 4.15 3.788l-11.698 56.621c-0.732 3.542 4.286 5.473 6.206 2.437l1.313-2.028 72.516-144.72c1.215-2.423-0.88-5.186-3.58-4.672l-25.505 4.922c-2.396 0.462-4.435-1.77-3.759-4.123l16.646-57.705c0.677-2.35-1.37-4.583-3.769-4.114z" />
</svg>
